<svg width="1287" height="624" viewBox="0 0 1287 624" fill="none" xmlns="http://www.w3.org/2000/svg">
<path d="M491.105 515.524H802.053M0.654756 -12.6318L0.654726 624M42.1145 -12.6318L42.1145 624M83.5742 -12.6318L83.5742 624M125.034 -12.6318L125.034 624M166.494 -12.6318L166.494 624M207.953 -12.6318L207.953 624M249.413 -12.6318L249.413 624M290.873 -12.6318L290.873 624M332.333 -12.6318L332.333 624M0.183594 598.659H1285.44M373.792 -12.6318L373.792 624M0.183594 559.537H1285.44M415.252 -12.6318L415.252 624M0.183594 520.414H1285.44M456.712 -12.6318L456.712 624M0.183594 481.291H1285.44M498.172 -12.6318L498.172 624M0.183594 442.169H1285.44M539.631 -12.6318L539.631 624M0.183594 403.046H1285.44M581.091 -12.6318L581.091 624M0.183594 363.923H1285.44M622.551 -12.6318L622.551 624M0.183594 324.801H1285.44M664.011 -12.6318L664.011 624M0.183594 285.678H1285.44M705.47 -12.6318L705.47 624M0.183594 246.556H1285.44M746.93 -12.6318L746.93 624M0.183594 207.433H1285.44M788.39 -12.6318L788.39 624M0.183594 168.31H1285.44M829.85 -12.6318L829.85 624M0.183594 129.188H1285.44M871.309 -12.6318L871.309 624M0.183594 90.0651H1285.44M912.769 -12.6318L912.769 624M0.183594 50.9425H1285.44M954.229 -12.6318L954.229 624M0.183594 11.8199H1285.44M995.689 -12.6318V624M0.183594 -27.3027L1285.44 -27.3027M1037.15 -12.6318V624M1078.61 -12.6318V624M1120.07 -12.6318V624M1161.53 -12.6318V624M1202.99 -12.6318V624M1244.45 -12.6318V624M1285.91 -12.6318V624" stroke="url(#paint0_radial_986_779)" stroke-width="0.888544"/>
<defs>
<radialGradient id="paint0_radial_986_779" cx="0" cy="0" r="1" gradientUnits="userSpaceOnUse" gradientTransform="translate(643.045 259.697) rotate(90) scale(364.303 719.163)">
<stop stop-color="white" stop-opacity="0.12"/>
<stop offset="0.6" stop-color="white" stop-opacity="0"/>
</radialGradient>
</defs>
</svg>
